<svg id="Layer_1" data-name="Layer 1" xmlns="http://www.w3.org/2000/svg" viewBox="0 0 488.86 124.84"><defs><style>.cls-1{fill:#1176bc;}.cls-2{fill:#25a7df;}</style></defs><title>AMSRO_VectorLogo</title><path class="cls-1" d="M70.54,232.46c.51-1.53,1.12-3,1.51-4.59q10.67-42.21,21.27-84.44c.87-3.42.87-3.43,4.3-3.44q14.1,0,28.21,0c3.67,0,3.67,0,4.45,3.55q9.48,42.63,19,85.26c.35,1.59.76,3.16,1.14,4.74H115.62l-.23-6.48-.56-.18-2.78,2.78a3.12,3.12,0,0,0-.77,3.88h-2.72a9.65,9.65,0,0,1,2.8-7.12c3-3.29,6.22-6.29,9.15-9.59a25.6,25.6,0,0,0,4.59-6.57c2-4.75-1.09-9.83-6.71-11.1a38.15,38.15,0,0,0,.06,5.87,6.44,6.44,0,0,1-1.4,5.57,50.05,50.05,0,0,1-6.55,6.78c-5.36,4.22-7.64,9.44-6.28,16.16H71.9C71.18,233.54,70.2,233.81,70.54,232.46Zm39.67-19.16.72.14c2.88-2.46,5.43-5.08,5.48-9.34.11-10.48.31-21,.46-31.44a9.07,9.07,0,0,0-.11-1.27c-2,1.41-3.83,3.08-6,4.07-2.71,1.27-2.93.72-2.72,4.64.54,9.84,1.15,19.67,1.74,29.5C109.9,210.83,110.08,212.06,110.21,213.3Zm-3.62-15.71c0-3.26.56-6-2.12-8.32-2.9-2.52-3.36-6-2.75-9.73s1.58-6.44,6.21-6.53a6.26,6.26,0,0,0,6-4.22c-2.51-3.22-5.5-4.19-8.93-2.92a12.84,12.84,0,0,0-8.43,8.9,22.59,22.59,0,0,0,.69,14.39C98.79,193.31,102,195.84,106.59,197.59Zm9.74-30.22.87-.33c-.18-3.1,0-6.28-.63-9.29a4.8,4.8,0,0,0-8.27-2.36c-2,2-1.76,4.33-1.09,6.83C111,162.82,114.12,164.25,116.33,167.37Z" transform="translate(-70.47 -108.73)"/><path class="cls-1" d="M483.84,233.54c-2.26-.61-4.53-1.19-6.79-1.83-13.1-3.71-19.12-11.5-21.31-25.79a1,1,0,0,1,.06-.47L487.7,188c.14,1.79.26,3.38.38,5,.39,5.13.65,10.29,1.25,15.4a16,16,0,0,0,2,5.86,7.78,7.78,0,0,0,13.17.67,15.31,15.31,0,0,0,2.61-6.72c.76-6.37,1.2-12.79,1.46-19.2.19-4.6-.09-9.22-.2-13.84a3.8,3.8,0,0,1,1.25-3.38,153,153,0,0,0,21.71-22,8.51,8.51,0,0,1,1.05-.89c.71.69,1.44,1.3,2.07,2a29.57,29.57,0,0,1,6.8,14.89,108.19,108.19,0,0,1-.5,40.74c-2.59,12.29-9.72,20.83-22,24.63-2.33.72-4.74,1.2-7.1,1.81-.6.16-1.17.4-1.76.6Z" transform="translate(-70.47 -108.73)"/><path class="cls-1" d="M420.3,233.54c-3.63-4-3.39-9.13-4.47-14.11l32.46-10.11c.43,2.07.87,4.07,1.25,6.07.56,2.93.88,5.92,1.68,8.78.88,3.19,2.18,6.25,3.3,9.37Z" transform="translate(-70.47 -108.73)"/><path class="cls-1" d="M155.81,233.54V210.39c1.35.17,2.21.22,3,.4q12.36,2.57,24.71,5.17c2.95.62,2.94.64,3,3.75q.1,6.91.22,13.83Z" transform="translate(-70.47 -108.73)"/><path class="cls-1" d="M202,233.54q-1.22-5.4-2.44-10.8l-.87-3.89,30.49,4.89c-.79,3.52-1.49,6.66-2.19,9.8Z" transform="translate(-70.47 -108.73)"/><path class="cls-1" d="M368.16,233.54c.15-2.22.29-4.45.45-6.82l32.38-4c.1,3.69.2,7.24.3,10.79Z" transform="translate(-70.47 -108.73)"/><path class="cls-2" d="M559.34,110.26c-.67,2.13-1.44,4.23-2,6.39-2.81,11.3-5.55,22.62-8.34,33.94-.22.92-.56,1.82-1,3.39a12.85,12.85,0,0,1-2-2.27c-1.93-4-3.73-8-5.67-12a2.7,2.7,0,0,1,.33-3c5.67-8.49,11.28-17,17-25.5a8.06,8.06,0,0,1,1.76-1.5Z" transform="translate(-70.47 -108.73)"/><path class="cls-1" d="M305.71,233.54c-4.29-1.33-8.58-2.65-12.86-4a2.62,2.62,0,0,1-1.49-1.16H349.6a45.7,45.7,0,0,1-5,2.6c-2.61,1-5.31,1.73-8,2.57Z" transform="translate(-70.47 -108.73)"/><path class="cls-1" d="M242.71,233.54v-8l30.41,3v5Z" transform="translate(-70.47 -108.73)"/><path class="cls-1" d="M242.22,167.39q-4.83,21.17-9.67,42.32c-.74,3.24-1.5,6.48-2.24,9.71a37,37,0,0,1-3.84,0q-12.81-1.52-25.59-3.13c-3-.38-3-.44-3.73-3.3q-4.93-20.86-9.85-41.73a5.4,5.4,0,0,0-1-2.22v44.74a12.48,12.48,0,0,1-2.06,0q-12.82-2.27-25.64-4.61c-2.65-.49-2.72-.6-2.7-3.42q.17-27.69.39-55.37c0-3.24,0-6.48,0-10,1.36-.14,2.4-.35,3.44-.35q20.49,0,41,0c3.16,0,3.19,0,3.86,3.21q4.8,23,9.57,46a2.63,2.63,0,0,0,.8,1.54c.35-1.91.67-3.82,1.05-5.72,2.9-14.18,5.84-28.35,8.67-42.54.39-1.93,1.32-2.48,3.15-2.48,13.94.05,27.87,0,41.81,0,2.87,0,3.05.21,3.08,3.13.13,10.49.28,21,.34,31.48q.14,21.7.16,43.42c0,.8-.12,1.6-.23,2.93-10.09-.16-20-.23-30.35-.89V167.32l.19-.81-.37-.08Z" transform="translate(-70.47 -108.73)"/><path class="cls-1" d="M368.63,215.53V139.19c1.14-.08,2.1-.2,3.07-.2,17.09,0,34.19,0,51.29.09a46.81,46.81,0,0,1,8.35.84c10.84,2,16.73,8.4,17.51,19.37a41.29,41.29,0,0,1-.86,11c-1.44,7.05-5.92,11.63-12.72,13.93a35.58,35.58,0,0,0-4.39,1.63c5.85,1.14,10.46,3.87,13.3,9.13-2.59,2.17-25.05,9.9-30.19,10.43-.56-1.53-1.05-3.16-1.75-4.7-2.09-4.63-5.71-6.43-10.92-5.25-.05,2.2-.1,4.51-.15,6.82-.18,8.15,1.36,6.6-6.75,8.4-7.76,1.73-15.62,3.06-23.43,4.56C370.38,215.37,369.75,215.4,368.63,215.53Zm32.78-35.94c2.61-.17,4.94-.16,7.21-.5a7.93,7.93,0,0,0,6.76-5.87,21.62,21.62,0,0,0,.17-12.27,7.46,7.46,0,0,0-4.89-5.39,19.93,19.93,0,0,0-9.25-.48Z" transform="translate(-70.47 -108.73)"/><path class="cls-1" d="M311,204.34c.22,2,.34,3.57.57,5.08a10.39,10.39,0,0,0,15.79,7.33c3.13-1.89,4.12-4.86,4-8.35a6.7,6.7,0,0,0-4.77-6.58c-3.23-1.16-6.54-2.08-9.83-3.07-5.54-1.67-11.16-3.11-16.61-5a27.33,27.33,0,0,1-12.84-9.2c-7.52-9.72-6.94-32.42,9.31-40.54A50,50,0,0,1,316,139.18a93.43,93.43,0,0,1,23.78,1.42,26.34,26.34,0,0,1,10.69,4.45c6.55,4.73,10.25,13.77,8.43,21.42-9,.13-18.18-.27-27.52-.35-.24-1.65-.44-3-.62-4.28-.52-3.71-2.53-5.84-6.24-6.51a10.93,10.93,0,0,0-7.88,1.11c-4.25,2.56-4.59,8.08-.42,10.74a30.59,30.59,0,0,0,7.71,3.19c5.89,1.78,11.89,3.16,17.75,5a39.46,39.46,0,0,1,8.35,3.85,22.31,22.31,0,0,1,10.82,15.84,38.72,38.72,0,0,1-1.2,18.78c-.59,1.84-1.51,2.83-3.59,3-11.63.95-23.23,2.31-34.87,3-11.29.64-22.61.6-33.91.8-3.7.07-3.81-.07-5-3.59a32.08,32.08,0,0,1-1.53-13.3Z" transform="translate(-70.47 -108.73)"/><path class="cls-1" d="M507.26,163.17c-.58-1.36-1-2.34-1.41-3.3-1.29-2.86-3.39-4.73-6.61-4.88a8,8,0,0,0-7.54,4A19.25,19.25,0,0,0,489,169.32c0,4.68-2.08,7.13-6.15,9-8.56,3.88-16.95,8.12-25.42,12.18a28.56,28.56,0,0,1-3.05,1.09,6.53,6.53,0,0,1-.38-1.31c-.2-8.7,0-17.35,2.35-25.82,3.12-11.28,10.25-18.86,21.36-22.25a73,73,0,0,1,40.67-.87,58.2,58.2,0,0,1,8.27,3.35,19.25,19.25,0,0,1,2.53,1.7A224.8,224.8,0,0,1,507.26,163.17Z" transform="translate(-70.47 -108.73)"/><path class="cls-2" d="M520.12,135.72c.84-1.95,29.15-23.21,35.94-27a8.56,8.56,0,0,1-.6,1.79c-5.53,8.37-11.05,16.74-16.67,25a3.34,3.34,0,0,1-2.37,1.32c-5-.08-9.93-.34-14.89-.58A4.38,4.38,0,0,1,520.12,135.72Z" transform="translate(-70.47 -108.73)"/><path class="cls-1" d="M242.22,167.39l.25-1,.37.08-.19.81Z" transform="translate(-70.47 -108.73)"/></svg>